<svg xmlns="http://www.w3.org/2000/svg" width="40" height="40"><path d="M23.987 20A3.988 3.988 0 1 1 20 16.012 3.988 3.988 0 0 1 23.987 20zm0 0" fill="#fff"/><path d="M29.326 12.945a3.962 3.962 0 0 0-2.27-2.27 6.619 6.619 0 0 0-2.221-.412c-1.262-.058-1.64-.07-4.834-.07s-3.573.012-4.834.07a6.623 6.623 0 0 0-2.221.412 3.963 3.963 0 0 0-2.271 2.27 6.621 6.621 0 0 0-.412 2.221c-.058 1.261-.07 1.64-.07 4.834s.012 3.572.07 4.834a6.619 6.619 0 0 0 .412 2.221 3.962 3.962 0 0 0 2.27 2.27 6.611 6.611 0 0 0 2.221.412c1.261.058 1.639.07 4.834.07s3.573-.012 4.834-.07a6.611 6.611 0 0 0 2.221-.412 3.962 3.962 0 0 0 2.27-2.27 6.625 6.625 0 0 0 .412-2.221c.058-1.262.07-1.64.07-4.834s-.012-3.573-.07-4.834a6.611 6.611 0 0 0-.411-2.221zM20 26.145a6.143 6.143 0 1 1 6.143-6.143A6.143 6.143 0 0 1 20 26.143zm6.386-11.093a1.436 1.436 0 1 1 1.436-1.436 1.436 1.436 0 0 1-1.436 1.434zm0 0" fill="#fff"/><path d="M20 0a20 20 0 1 0 20 20A20 20 0 0 0 20 0zm11.415 24.735a8.426 8.426 0 0 1-.534 2.788 5.872 5.872 0 0 1-3.359 3.359 8.432 8.432 0 0 1-2.787.534c-1.225.056-1.616.069-4.735.069s-3.51-.013-4.735-.069a8.432 8.432 0 0 1-2.787-.534 5.872 5.872 0 0 1-3.359-3.359 8.424 8.424 0 0 1-.534-2.787c-.056-1.225-.07-1.616-.07-4.735s.013-3.51.069-4.735a8.427 8.427 0 0 1 .533-2.788 5.876 5.876 0 0 1 3.359-3.359 8.434 8.434 0 0 1 2.788-.534c1.225-.056 1.616-.069 4.735-.069s3.51.013 4.735.07a8.435 8.435 0 0 1 2.788.533 5.874 5.874 0 0 1 3.359 3.359 8.425 8.425 0 0 1 .534 2.788c.056 1.225.069 1.616.069 4.735s-.013 3.509-.069 4.734zm0 0" fill="#fff"/></svg>