<svg xmlns="http://www.w3.org/2000/svg" width="170" height="92.499"><path data-name="Caminho 27" d="M52.45 77.196q-3.217-2.623-6.289-5.408c-.313.362-.636.719-.98 1.063s-.7.667-1.063.98q2.783 3.074 5.408 6.289c2.954 3.622 5.839 7.3 8.754 10.953a3.22 3.22 0 0 0 4.289.982 4.672 4.672 0 0 0 1.816-1.816 3.219 3.219 0 0 0-.982-4.289c-3.653-2.915-7.329-5.803-10.953-8.754z" fill="#fff"/><path data-name="Caminho 28" d="M39.596 39.378a94.149 94.149 0 0 0 9.364-9.453c3.7-4.643 5.709-9.8 4.846-15.839a15.542 15.542 0 0 0-5.729-10.137c-.24-.2-.5-.366-.756-.548a15.112 15.112 0 0 1 2.053 8.272 19.147 19.147 0 0 1-3.458 9.683 46.747 46.747 0 0 1-7.1 7.716 79.936 79.936 0 0 0-9.053 9.3c-3.51 4.575-5.375 9.639-4.515 15.47a14.858 14.858 0 0 0 6.069 10.166 16.014 16.014 0 0 1-1.672-5.4 17.6 17.6 0 0 1 2.778-11.06 39.022 39.022 0 0 1 7.173-8.17z" fill="#fff"/><path data-name="Caminho 29" d="M30.707 31.687a83.822 83.822 0 0 0 8.713-8.028c3.478-3.98 5.476-8.487 4.954-13.892A13.838 13.838 0 0 0 39.69.518c-.206-.185-.433-.346-.65-.518a13.453 13.453 0 0 1 1.49 7.441 17.044 17.044 0 0 1-3.469 8.473 41.629 41.629 0 0 1-6.631 6.574A71.213 71.213 0 0 0 22 30.394c-3.308 3.927-5.173 8.356-4.644 13.577a13.23 13.23 0 0 0 4.985 9.289 14.25 14.25 0 0 1-1.267-4.873 15.667 15.667 0 0 1 2.92-9.725 34.737 34.737 0 0 1 6.713-6.975z" fill="#fff"/><g data-name="Grupo 8"><path data-name="Caminho 30" d="M45.291 37.444c-.726.691-1.455 1.37-2.177 2.042-.606.564-1.212 1.127-1.822 1.7l-.991.94a18.5 18.5 0 1 1-25.051-4.673 22.623 22.623 0 0 1 4.321-8.351c.255-.322.517-.636.782-.946a25.316 25.316 0 1 0 24.94 9.284z" fill="#fff"/></g><g data-name="Grupo 9" fill="#fff"><path data-name="Caminho 31" d="M79.934 37.106v8.833h-3.328v-8.73a2.72 2.72 0 0 0-2.876-3.061c-1.808 0-3.1.986-3.1 3.266v8.525h-3.329v-8.73c0-2.1-1.109-3.061-2.753-3.061-1.767 0-3.081.986-3.081 3.266v8.525h-3.328V31.56h3.225v1.767a4.9 4.9 0 0 1 4.252-2.013 4.688 4.688 0 0 1 4.293 2.116 5.524 5.524 0 0 1 4.642-2.114c3.35 0 5.383 1.99 5.383 5.79z"/><path data-name="Caminho 32" d="M94.212 34.886v11.052h-3.061v-1.274a4.251 4.251 0 0 1-3.451 1.438 5.693 5.693 0 0 1 0-11.38 4.246 4.246 0 0 1 3.307 1.335v-1.171zm-3.143 5.526a2.834 2.834 0 1 0-2.814 3.061 2.8 2.8 0 0 0 2.814-3.061z"/><path data-name="Caminho 33" d="M104.031 34.722v2.958c-.267-.02-.473-.041-.719-.041-1.766 0-2.937.966-2.937 3.081v5.218h-3.2V34.886h3.061v1.459a4.459 4.459 0 0 1 3.795-1.623z"/><path data-name="Caminho 34" d="M105.552 31.559a1.832 1.832 0 0 1 1.993-1.787 1.8 1.8 0 0 1 1.993 1.725 2 2 0 0 1-3.985.062zm.39 3.328h3.2v11.052h-3.2z"/><path data-name="Caminho 35" d="M111.057 44.911l1.068-2.3a7.561 7.561 0 0 0 3.841 1.068c1.479 0 2.034-.39 2.034-1.006 0-1.808-6.676.041-6.676-4.375 0-2.1 1.89-3.574 5.115-3.574a9.088 9.088 0 0 1 4.252.965l-1.068 2.28a6.347 6.347 0 0 0-3.184-.822c-1.438 0-2.054.452-2.054 1.027 0 1.89 6.676.062 6.676 4.417 0 2.054-1.91 3.513-5.218 3.513a9.49 9.49 0 0 1-4.786-1.193z"/><path data-name="Caminho 36" d="M129.689 45.404a4.557 4.557 0 0 1-2.588.7c-2.63 0-4.129-1.335-4.129-3.965v-9.7h3.2v2.691h2.732v2.465h-2.732v4.5a1.274 1.274 0 0 0 1.356 1.458 2.268 2.268 0 0 0 1.315-.411z"/><path data-name="Caminho 37" d="M139.488 42.466l1.705 1.849a5.788 5.788 0 0 1-4.56 1.787c-3.821 0-6.306-2.4-6.306-5.69a5.62 5.62 0 0 1 5.916-5.69 5.411 5.411 0 0 1 5.711 5.587l-8.176 1.582a2.913 2.913 0 0 0 2.938 1.643 3.747 3.747 0 0 0 2.772-1.068zm-6.019-2.383l5.382-1.048a2.561 2.561 0 0 0-2.609-1.89 2.709 2.709 0 0 0-2.773 2.938z"/><path data-name="Caminho 38" d="M144.11 42.282V30.696h3.2v11.4a1.28 1.28 0 0 0 1.376 1.458 2.1 2.1 0 0 0 .9-.205l.144 2.486a5.216 5.216 0 0 1-1.664.267c-2.477 0-3.956-1.355-3.956-3.82z"/><path data-name="Caminho 39" d="M162.332 34.886v11.052h-3.061v-1.274a4.251 4.251 0 0 1-3.451 1.438 5.693 5.693 0 0 1 0-11.38 4.245 4.245 0 0 1 3.307 1.335v-1.171zm-3.143 5.526a2.834 2.834 0 1 0-2.814 3.061 2.8 2.8 0 0 0 2.814-3.061z"/><path data-name="Caminho 40" d="M79.38 59.054v8.977h-1.5v-8.936c0-2.876-1.582-4.211-3.944-4.211-2.486 0-4.108 1.356-4.108 4.54v8.607h-1.5v-8.936c0-2.876-1.5-4.211-3.882-4.211-2.486 0-4.15 1.356-4.15 4.54v8.607h-1.52v-14.38h1.458v2.4a4.663 4.663 0 0 1 4.54-2.527c2.259 0 3.923.986 4.622 2.691a4.9 4.9 0 0 1 4.766-2.691c3.225.001 5.218 1.87 5.218 5.53z"/><path data-name="Caminho 41" d="M91.582 65.419l.822.945a5.276 5.276 0 0 1-4.15 1.767 5.368 5.368 0 0 1-5.69-5.505 5.218 5.218 0 0 1 5.341-5.485 5.086 5.086 0 0 1 5.177 5.156l-8.874 1.726a4 4 0 0 0 4.067 2.814 4.2 4.2 0 0 0 3.307-1.418zm-7.6-2.9a3.2 3.2 0 0 0 .02.452l7.621-1.479a3.664 3.664 0 0 0-3.718-3.1 3.854 3.854 0 0 0-3.923 4.13z"/><path data-name="Caminho 42" d="M105.921 52.785v15.242h-1.4v-2.136a4.681 4.681 0 0 1-4.17 2.239 5.5 5.5 0 0 1 0-10.99 4.719 4.719 0 0 1 4.108 2.136v-6.491zm-1.438 9.84a4.02 4.02 0 1 0-4.006 4.211 3.952 3.952 0 0 0 4.006-4.215z"/><path data-name="Caminho 43" d="M117.923 65.419l.822.945a5.275 5.275 0 0 1-4.149 1.767 5.368 5.368 0 0 1-5.69-5.505 5.218 5.218 0 0 1 5.341-5.485 5.086 5.086 0 0 1 5.177 5.156l-8.874 1.726a4 4 0 0 0 4.067 2.814 4.2 4.2 0 0 0 3.306-1.418zm-7.6-2.9a3.149 3.149 0 0 0 .021.452l7.621-1.479a3.664 3.664 0 0 0-3.718-3.1 3.854 3.854 0 0 0-3.93 4.13z"/><path data-name="Caminho 44" d="M122.068 53.812a1.053 1.053 0 0 1 1.068-1.027 1.036 1.036 0 0 1 1.068 1.007 1.068 1.068 0 0 1-2.136.021zm.328 3.41h1.459v10.805h-1.459z"/><path data-name="Caminho 45" d="M133.366 57.14v1.417c-.123 0-.247-.021-.349-.021-2.26 0-3.636 1.438-3.636 3.985v5.505h-1.458V57.222h1.4v2.116c.674-1.438 2.05-2.198 4.043-2.198z"/><path data-name="Caminho 46" d="M134.805 62.625a5.5 5.5 0 1 1 5.505 5.505 5.315 5.315 0 0 1-5.505-5.505zm9.511 0a4.021 4.021 0 1 0-4.006 4.211 3.94 3.94 0 0 0 4.006-4.211z"/><path data-name="Caminho 47" d="M147.274 66.795l.657-1.15a6.527 6.527 0 0 0 3.841 1.212c2.054 0 2.9-.7 2.9-1.767 0-2.814-7-.6-7-4.869 0-1.767 1.52-3.081 4.273-3.081a7.323 7.323 0 0 1 3.821 1.007l-.637 1.171a5.538 5.538 0 0 0-3.184-.924c-1.951 0-2.814.76-2.814 1.787 0 2.917 7.005.719 7.005 4.868 0 1.869-1.644 3.081-4.458 3.081a7.219 7.219 0 0 1-4.404-1.335z"/></g><g data-name="Grupo 10"><path data-name="Retângulo 16" fill="#fff" d="M58.594 74.313h111.405v1.821H58.594z"/></g></svg>