<svg xmlns="http://www.w3.org/2000/svg" width="40.75" height="40.75"><path d="M10.704 21.879h1.615v8.743h1.529v-8.743h1.645v-1.432h-4.789zm12.923 1.068a1.86 1.86 0 0 0-1.42.822v-3.323h-1.374v10.176h1.374v-.735a1.873 1.873 0 0 0 1.42.839 1.087 1.087 0 0 0 1.1-.852 6.036 6.036 0 0 0 .133-1.528v-3.019a5.824 5.824 0 0 0-.139-1.524 1.087 1.087 0 0 0-1.094-.856zm-.138 5.507c0 .685-.2 1.023-.6 1.023a.98.98 0 0 1-.685-.338v-4.621a.986.986 0 0 1 .685-.335c.4 0 .6.351.6 1.035zm-5.219.38c-.3.431-.593.643-.869.643-.183 0-.288-.108-.321-.321a4.242 4.242 0 0 1-.013-.534V23.04h-1.374v5.994a3.865 3.865 0 0 0 .121 1.128.844.844 0 0 0 .885.564 2.2 2.2 0 0 0 1.57-.931v.827h1.375V23.04H18.27zm1.179-12.798c.447 0 .662-.355.662-1.063v-3.222c0-.709-.215-1.062-.662-1.062s-.663.354-.663 1.062v3.223c0 .707.215 1.062.663 1.062z" fill="#fff"/><path d="M20.375 0A20.375 20.375 0 1 0 40.75 20.375 20.375 20.375 0 0 0 20.375 0zm2.266 9.53h1.384v5.641a3.268 3.268 0 0 0 .017.54c.03.215.14.325.326.325.278 0 .569-.215.877-.65V9.53h1.388v7.662h-1.388v-.835a2.229 2.229 0 0 1-1.586.941.853.853 0 0 1-.895-.569 3.872 3.872 0 0 1-.123-1.139V9.53zm-5.244 2.5a2.978 2.978 0 0 1 .434-1.805 2.059 2.059 0 0 1 3.236 0 3.008 3.008 0 0 1 .43 1.805v2.683a3 3 0 0 1-.43 1.8 2.062 2.062 0 0 1-3.236 0 2.968 2.968 0 0 1-.434-1.8zm-3.712-5.12l1.093 4.037 1.05-4.037h1.557l-1.852 6.118v4.164h-1.539v-4.164a25.323 25.323 0 0 0-.942-3.253c-.324-.954-.662-1.911-.987-2.865h1.62zm17.659 24.381a2.872 2.872 0 0 1-2.457 2.234 76.359 76.359 0 0 1-8.513.315 76.356 76.356 0 0 1-8.512-.315A2.87 2.87 0 0 1 9.4 31.291a24.32 24.32 0 0 1-.4-5.374 24.349 24.349 0 0 1 .4-5.374 2.87 2.87 0 0 1 2.456-2.234A76.368 76.368 0 0 1 20.379 18a76.36 76.36 0 0 1 8.512.315 2.873 2.873 0 0 1 2.458 2.234 24.4 24.4 0 0 1 .393 5.374 24.321 24.321 0 0 1-.398 5.368z" fill="#fff"/><path d="M28.002 22.948a1.951 1.951 0 0 0-1.645.777 2.956 2.956 0 0 0-.424 1.786v2.656a2.927 2.927 0 0 0 .441 1.783 1.966 1.966 0 0 0 1.663.777 1.9 1.9 0 0 0 1.66-.825 1.957 1.957 0 0 0 .321-.823c.013-.138.029-.442.029-.885v-.2h-1.4a9 9 0 0 1-.03.93.591.591 0 0 1-.614.551c-.472 0-.7-.35-.7-1.051v-1.343h2.744v-1.57a2.98 2.98 0 0 0-.425-1.786 1.907 1.907 0 0 0-1.62-.777zm.672 2.99H27.3v-.7q0-1.052.69-1.052c.454 0 .685.351.685 1.052z" fill="#fff"/></svg>